<svg height="41" viewBox="0 0 2016 536" fill="none" xmlns="http://www.w3.org/2000/svg">
<path d="M313.228 532.473L14.3354 294.526C5.64429 287.607 -0.737096 271.128 0.0686302 257.71L14.69 14.8099C15.4957 1.39192 23.1985 -3.87236 31.8788 3.04614L330.771 240.993C339.462 247.912 345.843 264.392 345.038 277.81L330.416 520.709C329.611 534.127 321.908 539.391 313.228 532.473Z" fill="url(#paint0_linear_21_2)"/>
<path d="M472.228 532.473L173.335 294.526C164.644 287.607 158.263 271.128 159.069 257.71L173.69 14.8099C174.496 1.39192 182.198 -3.87236 190.879 3.04614L489.771 240.993C498.462 247.912 504.843 264.392 504.038 277.81L489.416 520.709C488.611 534.127 480.908 539.391 472.228 532.473Z" fill="url(#paint1_linear_21_2)"/>
<path d="M658.228 532.473L359.335 294.526C350.644 287.607 344.263 271.128 345.069 257.71L359.69 14.8099C360.496 1.39192 368.198 -3.87236 376.879 3.04614L675.771 240.993C684.462 247.912 690.843 264.392 690.038 277.81L675.416 520.709C674.611 534.127 666.908 539.391 658.228 532.473Z" fill="url(#paint2_linear_21_2)"/>
<path d="M1054.22 383.219H1001.83L961.241 224.325L920.997 383.219H868.61L802.347 151.816H857.509L898.099 319.036L942.159 151.816H980.669L1024.38 319.036L1064.63 151.816H1120.13L1054.22 383.219Z" fill="black"/>
<path d="M1307.12 383.219H1143.37V151.816H1307.12V195.182H1192.63V244.1H1304.69V287.466H1192.63V339.852H1307.12V383.219Z" fill="black"/>
<path d="M1394.89 383.219H1345.63V151.816H1453.87C1478.16 151.816 1497.12 158.986 1510.77 173.326C1524.65 187.434 1531.59 205.128 1531.59 226.406C1531.59 247.453 1524.65 265.147 1510.77 279.486C1496.89 293.826 1477.93 300.996 1453.87 300.996H1394.89V383.219ZM1447.28 257.63C1457.23 257.63 1465.32 254.854 1471.57 249.304C1478.04 243.521 1481.28 235.889 1481.28 226.406C1481.28 216.923 1478.04 209.407 1471.57 203.856C1465.32 198.074 1457.23 195.182 1447.28 195.182H1394.89V257.63H1447.28Z" fill="black"/>
<path d="M1749.47 383.219H1692.92L1647.47 300.996H1611.39V383.219H1562.12V151.816H1670.37C1694.19 151.816 1713.04 158.755 1726.92 172.632C1741.02 186.509 1748.08 204.434 1748.08 226.406C1748.08 245.372 1743.11 260.752 1733.16 272.548C1723.45 284.343 1711.53 291.86 1697.43 295.098L1749.47 383.219ZM1663.08 257.63C1673.26 257.63 1681.58 254.854 1688.06 249.304C1694.53 243.521 1697.77 235.889 1697.77 226.406C1697.77 216.923 1694.53 209.407 1688.06 203.856C1681.58 198.074 1673.26 195.182 1663.08 195.182H1611.39V257.63H1663.08Z" fill="black"/>
<path d="M1894.68 387.382C1859.76 387.382 1830.85 376.164 1807.95 353.729C1785.28 331.063 1773.95 302.384 1773.95 267.691C1773.95 232.998 1785.28 204.434 1807.95 181.999C1830.85 159.333 1859.76 148 1894.68 148C1929.84 148 1958.75 159.217 1981.42 181.652C2004.31 204.087 2015.76 232.767 2015.76 267.691C2015.76 302.615 2004.31 331.295 1981.42 353.729C1958.75 376.164 1929.84 387.382 1894.68 387.382ZM1843.68 322.159C1856.64 336.499 1873.64 343.669 1894.68 343.669C1915.73 343.669 1932.73 336.499 1945.68 322.159C1958.63 307.819 1965.11 289.663 1965.11 267.691C1965.11 245.719 1958.63 227.563 1945.68 213.223C1932.73 198.883 1915.73 191.713 1894.68 191.713C1873.64 191.713 1856.64 198.883 1843.68 213.223C1830.96 227.563 1824.6 245.719 1824.6 267.691C1824.6 289.663 1830.96 307.819 1843.68 322.159Z" fill="black"/>
<defs>
<linearGradient id="paint0_linear_21_2" x1="-57.6966" y1="84.4675" x2="405.768" y2="453.415" gradientUnits="userSpaceOnUse">
<stop stop-color="#4B87F7"/>
<stop offset="0.21" stop-color="#3E77E1"/>
<stop offset="0.86" stop-color="#204EB0"/>
</linearGradient>
<linearGradient id="paint1_linear_21_2" x1="101.303" y1="84.4675" x2="564.768" y2="453.415" gradientUnits="userSpaceOnUse">
<stop stop-color="#4B87F7"/>
<stop offset="0.21" stop-color="#3E77E1"/>
<stop offset="0.86" stop-color="#204EB0"/>
</linearGradient>
<linearGradient id="paint2_linear_21_2" x1="287.303" y1="84.4675" x2="750.768" y2="453.415" gradientUnits="userSpaceOnUse">
<stop stop-color="#4B87F7"/>
<stop offset="0.21" stop-color="#3E77E1"/>
<stop offset="0.86" stop-color="#204EB0"/>
</linearGradient>
</defs>
</svg>
